<?xml version="1.0" encoding="utf-8" standalone="no"?>
<!DOCTYPE svg PUBLIC "-//W3C//DTD SVG 1.1//EN"
  "http://www.w3.org/Graphics/SVG/1.1/DTD/svg11.dtd">
<svg xmlns:xlink="http://www.w3.org/1999/xlink" width="533.185313pt" height="237.87pt" viewBox="0 0 533.185313 237.87" xmlns="http://www.w3.org/2000/svg" version="1.1">
 <metadata>
  <rdf:RDF xmlns:dc="http://purl.org/dc/elements/1.1/" xmlns:cc="http://creativecommons.org/ns#" xmlns:rdf="http://www.w3.org/1999/02/22-rdf-syntax-ns#">
   <cc:Work>
    <dc:type rdf:resource="http://purl.org/dc/dcmitype/StillImage"/>
    <dc:date>2026-09-07T17:09:47.512930</dc:date>
    <dc:format>image/svg+xml</dc:format>
    <dc:creator>
     <cc:Agent>
      <dc:title>Matplotlib v3.11.1, https://matplotlib.org/</dc:title>
     </cc:Agent>
    </dc:creator>
   </cc:Work>
  </rdf:RDF>
 </metadata>
 <defs>
  <style type="text/css">*{stroke-linejoin: round; stroke-linecap: butt}</style>
 </defs>
 <g id="figure_1">
  <g id="patch_1">
   <path d="M 0 237.87 
L 533.185313 237.87 
L 533.185313 0 
L 0 0 
z
" style="fill: #ffffff"/>
  </g>
  <g id="axes_1">
   <g id="patch_2">
    <path d="M 43.680656 185.04 
L 175.440656 185.04 
L 175.440656 82.08 
L 43.680656 82.08 
z
" style="fill: #ffffff"/>
   </g>
   <g id="matplotlib.axis_1">
    <g id="xtick_1">
     <g id="line2d_1">
      <defs>
       <path id="m4e1d97d5b6" d="M 0 0 
L 0 3 
" style="stroke: #000000; stroke-width: 0.8"/>
      </defs>
      <g>
       <use xlink:href="#m4e1d97d5b6" x="61.221034" y="185.04" style="stroke: #000000; stroke-width: 0.8"/>
      </g>
     </g>
     <g id="text_1">
      <text style="font-size: 8px; font-family: 'Arial', 'Helvetica', 'DejaVu Sans', sans-serif; text-anchor: middle" x="61.221034" y="197.364219" transform="rotate(-0 61.221034 197.364219)">20</text>
     </g>
    </g>
    <g id="xtick_2">
     <g id="line2d_2">
      <g>
       <use xlink:href="#m4e1d97d5b6" x="88.843675" y="185.04" style="stroke: #000000; stroke-width: 0.8"/>
      </g>
     </g>
     <g id="text_2">
      <text style="font-size: 8px; font-family: 'Arial', 'Helvetica', 'DejaVu Sans', sans-serif; text-anchor: middle" x="88.843675" y="197.364219" transform="rotate(-0 88.843675 197.364219)">40</text>
     </g>
    </g>
    <g id="xtick_3">
     <g id="line2d_3">
      <g>
       <use xlink:href="#m4e1d97d5b6" x="116.466317" y="185.04" style="stroke: #000000; stroke-width: 0.8"/>
      </g>
     </g>
     <g id="text_3">
      <text style="font-size: 8px; font-family: 'Arial', 'Helvetica', 'DejaVu Sans', sans-serif; text-anchor: middle" x="116.466317" y="197.364219" transform="rotate(-0 116.466317 197.364219)">60</text>
     </g>
    </g>
    <g id="xtick_4">
     <g id="line2d_4">
      <g>
       <use xlink:href="#m4e1d97d5b6" x="144.088958" y="185.04" style="stroke: #000000; stroke-width: 0.8"/>
      </g>
     </g>
     <g id="text_4">
      <text style="font-size: 8px; font-family: 'Arial', 'Helvetica', 'DejaVu Sans', sans-serif; text-anchor: middle" x="144.088958" y="197.364219" transform="rotate(-0 144.088958 197.364219)">80</text>
     </g>
    </g>
    <g id="xtick_5">
     <g id="line2d_5">
      <g>
       <use xlink:href="#m4e1d97d5b6" x="171.7116" y="185.04" style="stroke: #000000; stroke-width: 0.8"/>
      </g>
     </g>
     <g id="text_5">
      <text style="font-size: 8px; font-family: 'Arial', 'Helvetica', 'DejaVu Sans', sans-serif; text-anchor: middle" x="171.7116" y="197.364219" transform="rotate(-0 171.7116 197.364219)">100</text>
     </g>
    </g>
    <g id="text_6">
     <text style="font-size: 8px; font-family: 'Arial', 'Helvetica', 'DejaVu Sans', sans-serif; text-anchor: middle" x="109.560656" y="208.872031" transform="rotate(-0 109.560656 208.872031)">Gradient step</text>
    </g>
   </g>
   <g id="matplotlib.axis_2">
    <g id="ytick_1">
     <g id="line2d_6">
      <path d="M 43.680656 174.875212 
L 175.440656 174.875212 
" clip-path="url(#p5f56c4a841)" style="fill: none; stroke: #d8d8d8; stroke-opacity: 0.7; stroke-width: 0.6; stroke-linecap: square"/>
     </g>
     <g id="line2d_7">
      <defs>
       <path id="m9c58f08f66" d="M 0 0 
L -3 0 
" style="stroke: #000000; stroke-width: 0.8"/>
      </defs>
      <g>
       <use xlink:href="#m9c58f08f66" x="43.680656" y="174.875212" style="stroke: #000000; stroke-width: 0.8"/>
      </g>
     </g>
     <g id="text_7">
      <text style="font-size: 8px; font-family: 'Arial', 'Helvetica', 'DejaVu Sans', sans-serif; text-anchor: end" x="37.180656" y="177.787321" transform="rotate(-0 37.180656 177.787321)">4</text>
     </g>
    </g>
    <g id="ytick_2">
     <g id="line2d_8">
      <path d="M 43.680656 144.811775 
L 175.440656 144.811775 
" clip-path="url(#p5f56c4a841)" style="fill: none; stroke: #d8d8d8; stroke-opacity: 0.7; stroke-width: 0.6; stroke-linecap: square"/>
     </g>
     <g id="line2d_9">
      <g>
       <use xlink:href="#m9c58f08f66" x="43.680656" y="144.811775" style="stroke: #000000; stroke-width: 0.8"/>
      </g>
     </g>
     <g id="text_8">
      <text style="font-size: 8px; font-family: 'Arial', 'Helvetica', 'DejaVu Sans', sans-serif; text-anchor: end" x="37.180656" y="147.723884" transform="rotate(-0 37.180656 147.723884)">6</text>
     </g>
    </g>
    <g id="ytick_3">
     <g id="line2d_10">
      <path d="M 43.680656 114.748338 
L 175.440656 114.748338 
" clip-path="url(#p5f56c4a841)" style="fill: none; stroke: #d8d8d8; stroke-opacity: 0.7; stroke-width: 0.6; stroke-linecap: square"/>
     </g>
     <g id="line2d_11">
      <g>
       <use xlink:href="#m9c58f08f66" x="43.680656" y="114.748338" style="stroke: #000000; stroke-width: 0.8"/>
      </g>
     </g>
     <g id="text_9">
      <text style="font-size: 8px; font-family: 'Arial', 'Helvetica', 'DejaVu Sans', sans-serif; text-anchor: end" x="37.180656" y="117.660447" transform="rotate(-0 37.180656 117.660447)">8</text>
     </g>
    </g>
    <g id="ytick_4">
     <g id="line2d_12">
      <path d="M 43.680656 84.684901 
L 175.440656 84.684901 
" clip-path="url(#p5f56c4a841)" style="fill: none; stroke: #d8d8d8; stroke-opacity: 0.7; stroke-width: 0.6; stroke-linecap: square"/>
     </g>
     <g id="line2d_13">
      <g>
       <use xlink:href="#m9c58f08f66" x="43.680656" y="84.684901" style="stroke: #000000; stroke-width: 0.8"/>
      </g>
     </g>
     <g id="text_10">
      <text style="font-size: 8px; font-family: 'Arial', 'Helvetica', 'DejaVu Sans', sans-serif; text-anchor: end" x="37.180656" y="87.597011" transform="rotate(-0 37.180656 87.597011)">10</text>
     </g>
    </g>
    <g id="text_11">
     <text style="font-size: 8px; font-family: 'Arial', 'Helvetica', 'DejaVu Sans', sans-serif; text-anchor: middle" x="22.599406" y="133.56" transform="rotate(-90 22.599406 133.56)">Training cross-entropy</text>
    </g>
   </g>
   <g id="line2d_14">
    <path d="M 47.409713 101.645039 
L 61.221034 126.120104 
L 75.032354 145.08684 
L 88.843675 156.436464 
L 102.654996 161.886364 
L 116.466317 166.739685 
L 130.277637 167.988325 
L 144.088958 169.773176 
L 157.900279 170.172508 
L 171.7116 170.581837 
" clip-path="url(#p5f56c4a841)" style="fill: none; stroke: #4477aa; stroke-width: 1.5; stroke-linecap: square"/>
    <defs>
     <path id="mfb4266aaec" d="M 0 1.5 
C 0.397805 1.5 0.77937 1.341951 1.06066 1.06066 
C 1.341951 0.77937 1.5 0.397805 1.5 0 
C 1.5 -0.397805 1.341951 -0.77937 1.06066 -1.06066 
C 0.77937 -1.341951 0.397805 -1.5 0 -1.5 
C -0.397805 -1.5 -0.77937 -1.341951 -1.06066 -1.06066 
C -1.341951 -0.77937 -1.5 -0.397805 -1.5 0 
C -1.5 0.397805 -1.341951 0.77937 -1.06066 1.06066 
C -0.77937 1.341951 -0.397805 1.5 0 1.5 
z
"/>
    </defs>
    <g clip-path="url(#p5f56c4a841)">
     <use xlink:href="#mfb4266aaec" x="47.409713" y="101.645039" style="fill: #4477aa"/>
     <use xlink:href="#mfb4266aaec" x="61.221034" y="126.120104" style="fill: #4477aa"/>
     <use xlink:href="#mfb4266aaec" x="75.032354" y="145.08684" style="fill: #4477aa"/>
     <use xlink:href="#mfb4266aaec" x="88.843675" y="156.436464" style="fill: #4477aa"/>
     <use xlink:href="#mfb4266aaec" x="102.654996" y="161.886364" style="fill: #4477aa"/>
     <use xlink:href="#mfb4266aaec" x="116.466317" y="166.739685" style="fill: #4477aa"/>
     <use xlink:href="#mfb4266aaec" x="130.277637" y="167.988325" style="fill: #4477aa"/>
     <use xlink:href="#mfb4266aaec" x="144.088958" y="169.773176" style="fill: #4477aa"/>
     <use xlink:href="#mfb4266aaec" x="157.900279" y="170.172508" style="fill: #4477aa"/>
     <use xlink:href="#mfb4266aaec" x="171.7116" y="170.581837" style="fill: #4477aa"/>
    </g>
   </g>
   <g id="line2d_15">
    <path d="M 47.409713 109.869959 
L 61.221034 151.837901 
L 75.032354 165.631982 
L 88.843675 172.100176 
L 102.654996 174.443621 
L 116.466317 177.555607 
L 130.277637 177.90042 
L 144.088958 179.255319 
L 157.900279 179.359925 
L 171.7116 179.557396 
" clip-path="url(#p5f56c4a841)" style="fill: none; stroke: #66a61e; stroke-width: 1.5; stroke-linecap: square"/>
    <defs>
     <path id="m924becaf7d" d="M 0 1.5 
C 0.397805 1.5 0.77937 1.341951 1.06066 1.06066 
C 1.341951 0.77937 1.5 0.397805 1.5 0 
C 1.5 -0.397805 1.341951 -0.77937 1.06066 -1.06066 
C 0.77937 -1.341951 0.397805 -1.5 0 -1.5 
C -0.397805 -1.5 -0.77937 -1.341951 -1.06066 -1.06066 
C -1.341951 -0.77937 -1.5 -0.397805 -1.5 0 
C -1.5 0.397805 -1.341951 0.77937 -1.06066 1.06066 
C -0.77937 1.341951 -0.397805 1.5 0 1.5 
z
"/>
    </defs>
    <g clip-path="url(#p5f56c4a841)">
     <use xlink:href="#m924becaf7d" x="47.409713" y="109.869959" style="fill: #66a61e"/>
     <use xlink:href="#m924becaf7d" x="61.221034" y="151.837901" style="fill: #66a61e"/>
     <use xlink:href="#m924becaf7d" x="75.032354" y="165.631982" style="fill: #66a61e"/>
     <use xlink:href="#m924becaf7d" x="88.843675" y="172.100176" style="fill: #66a61e"/>
     <use xlink:href="#m924becaf7d" x="102.654996" y="174.443621" style="fill: #66a61e"/>
     <use xlink:href="#m924becaf7d" x="116.466317" y="177.555607" style="fill: #66a61e"/>
     <use xlink:href="#m924becaf7d" x="130.277637" y="177.90042" style="fill: #66a61e"/>
     <use xlink:href="#m924becaf7d" x="144.088958" y="179.255319" style="fill: #66a61e"/>
     <use xlink:href="#m924becaf7d" x="157.900279" y="179.359925" style="fill: #66a61e"/>
     <use xlink:href="#m924becaf7d" x="171.7116" y="179.557396" style="fill: #66a61e"/>
    </g>
   </g>
   <g id="line2d_16">
    <path d="M 47.409713 122.4387 
L 61.221034 156.83037 
L 75.032354 166.299481 
L 88.843675 171.306787 
L 102.654996 173.904178 
L 116.466317 177.399774 
L 130.277637 178.034187 
L 144.088958 179.762143 
L 157.900279 180.015924 
L 171.7116 180.36 
" clip-path="url(#p5f56c4a841)" style="fill: none; stroke: #228833; stroke-width: 1.5; stroke-linecap: square"/>
    <defs>
     <path id="m617e54e794" d="M 0 1.5 
C 0.397805 1.5 0.77937 1.341951 1.06066 1.06066 
C 1.341951 0.77937 1.5 0.397805 1.5 0 
C 1.5 -0.397805 1.341951 -0.77937 1.06066 -1.06066 
C 0.77937 -1.341951 0.397805 -1.5 0 -1.5 
C -0.397805 -1.5 -0.77937 -1.341951 -1.06066 -1.06066 
C -1.341951 -0.77937 -1.5 -0.397805 -1.5 0 
C -1.5 0.397805 -1.341951 0.77937 -1.06066 1.06066 
C -0.77937 1.341951 -0.397805 1.5 0 1.5 
z
"/>
    </defs>
    <g clip-path="url(#p5f56c4a841)">
     <use xlink:href="#m617e54e794" x="47.409713" y="122.4387" style="fill: #228833"/>
     <use xlink:href="#m617e54e794" x="61.221034" y="156.83037" style="fill: #228833"/>
     <use xlink:href="#m617e54e794" x="75.032354" y="166.299481" style="fill: #228833"/>
     <use xlink:href="#m617e54e794" x="88.843675" y="171.306787" style="fill: #228833"/>
     <use xlink:href="#m617e54e794" x="102.654996" y="173.904178" style="fill: #228833"/>
     <use xlink:href="#m617e54e794" x="116.466317" y="177.399774" style="fill: #228833"/>
     <use xlink:href="#m617e54e794" x="130.277637" y="178.034187" style="fill: #228833"/>
     <use xlink:href="#m617e54e794" x="144.088958" y="179.762143" style="fill: #228833"/>
     <use xlink:href="#m617e54e794" x="157.900279" y="180.015924" style="fill: #228833"/>
     <use xlink:href="#m617e54e794" x="171.7116" y="180.36" style="fill: #228833"/>
    </g>
   </g>
   <g id="line2d_17">
    <path d="M 47.409713 119.747797 
L 61.221034 138.879838 
L 75.032354 154.571328 
L 88.843675 159.942282 
L 102.654996 163.878563 
L 116.466317 168.465762 
L 130.277637 169.484462 
L 144.088958 171.437593 
L 157.900279 171.85083 
L 171.7116 172.084543 
" clip-path="url(#p5f56c4a841)" style="fill: none; stroke: #ee7733; stroke-width: 1.5; stroke-linecap: square"/>
    <defs>
     <path id="md6e0c4faf1" d="M 0 1.5 
C 0.397805 1.5 0.77937 1.341951 1.06066 1.06066 
C 1.341951 0.77937 1.5 0.397805 1.5 0 
C 1.5 -0.397805 1.341951 -0.77937 1.06066 -1.06066 
C 0.77937 -1.341951 0.397805 -1.5 0 -1.5 
C -0.397805 -1.5 -0.77937 -1.341951 -1.06066 -1.06066 
C -1.341951 -0.77937 -1.5 -0.397805 -1.5 0 
C -1.5 0.397805 -1.341951 0.77937 -1.06066 1.06066 
C -0.77937 1.341951 -0.397805 1.5 0 1.5 
z
"/>
    </defs>
    <g clip-path="url(#p5f56c4a841)">
     <use xlink:href="#md6e0c4faf1" x="47.409713" y="119.747797" style="fill: #ee7733"/>
     <use xlink:href="#md6e0c4faf1" x="61.221034" y="138.879838" style="fill: #ee7733"/>
     <use xlink:href="#md6e0c4faf1" x="75.032354" y="154.571328" style="fill: #ee7733"/>
     <use xlink:href="#md6e0c4faf1" x="88.843675" y="159.942282" style="fill: #ee7733"/>
     <use xlink:href="#md6e0c4faf1" x="102.654996" y="163.878563" style="fill: #ee7733"/>
     <use xlink:href="#md6e0c4faf1" x="116.466317" y="168.465762" style="fill: #ee7733"/>
     <use xlink:href="#md6e0c4faf1" x="130.277637" y="169.484462" style="fill: #ee7733"/>
     <use xlink:href="#md6e0c4faf1" x="144.088958" y="171.437593" style="fill: #ee7733"/>
     <use xlink:href="#md6e0c4faf1" x="157.900279" y="171.85083" style="fill: #ee7733"/>
     <use xlink:href="#md6e0c4faf1" x="171.7116" y="172.084543" style="fill: #ee7733"/>
    </g>
   </g>
   <g id="line2d_18">
    <path d="M 47.409713 114.660553 
L 61.221034 86.76 
L 75.032354 122.488516 
L 88.843675 145.808032 
L 102.654996 151.479274 
L 116.466317 155.673379 
L 130.277637 157.276001 
L 144.088958 159.108397 
L 157.900279 159.562475 
L 171.7116 159.753453 
" clip-path="url(#p5f56c4a841)" style="fill: none; stroke: #aa3377; stroke-width: 1.5; stroke-linecap: square"/>
    <defs>
     <path id="m4a2f1e5bcc" d="M 0 1.5 
C 0.397805 1.5 0.77937 1.341951 1.06066 1.06066 
C 1.341951 0.77937 1.5 0.397805 1.5 0 
C 1.5 -0.397805 1.341951 -0.77937 1.06066 -1.06066 
C 0.77937 -1.341951 0.397805 -1.5 0 -1.5 
C -0.397805 -1.5 -0.77937 -1.341951 -1.06066 -1.06066 
C -1.341951 -0.77937 -1.5 -0.397805 -1.5 0 
C -1.5 0.397805 -1.341951 0.77937 -1.06066 1.06066 
C -0.77937 1.341951 -0.397805 1.5 0 1.5 
z
"/>
    </defs>
    <g clip-path="url(#p5f56c4a841)">
     <use xlink:href="#m4a2f1e5bcc" x="47.409713" y="114.660553" style="fill: #aa3377"/>
     <use xlink:href="#m4a2f1e5bcc" x="61.221034" y="86.76" style="fill: #aa3377"/>
     <use xlink:href="#m4a2f1e5bcc" x="75.032354" y="122.488516" style="fill: #aa3377"/>
     <use xlink:href="#m4a2f1e5bcc" x="88.843675" y="145.808032" style="fill: #aa3377"/>
     <use xlink:href="#m4a2f1e5bcc" x="102.654996" y="151.479274" style="fill: #aa3377"/>
     <use xlink:href="#m4a2f1e5bcc" x="116.466317" y="155.673379" style="fill: #aa3377"/>
     <use xlink:href="#m4a2f1e5bcc" x="130.277637" y="157.276001" style="fill: #aa3377"/>
     <use xlink:href="#m4a2f1e5bcc" x="144.088958" y="159.108397" style="fill: #aa3377"/>
     <use xlink:href="#m4a2f1e5bcc" x="157.900279" y="159.562475" style="fill: #aa3377"/>
     <use xlink:href="#m4a2f1e5bcc" x="171.7116" y="159.753453" style="fill: #aa3377"/>
    </g>
   </g>
   <g id="patch_3">
    <path d="M 43.680656 185.04 
L 43.680656 82.08 
" style="fill: none; stroke: #000000; stroke-width: 0.8; stroke-linejoin: miter; stroke-linecap: square"/>
   </g>
   <g id="patch_4">
    <path d="M 43.680656 185.04 
L 175.440656 185.04 
" style="fill: none; stroke: #000000; stroke-width: 0.8; stroke-linejoin: miter; stroke-linecap: square"/>
   </g>
   <g id="patch_5">
    <path d="M 83.259667 93.446764 
Q 73.196739 90.393561 63.13381 87.340358 
" style="fill: none; stroke: #666666; stroke-width: 0.7; stroke-linecap: round"/>
   </g>
   <g id="text_12">
    <text style="font-size: 6.5px; font-family: 'Arial', 'Helvetica', 'DejaVu Sans', sans-serif; text-anchor: start; fill: #4d4d4d" x="73.221034" y="100.76" transform="rotate(-0 73.221034 100.76)">Transient loss spike</text>
   </g>
   <g id="text_13">
    <text style="font-weight: 700; font-size: 10px; font-family: 'Arial', 'Helvetica', 'DejaVu Sans', sans-serif; text-anchor: start" x="22.599056" y="73.797908" transform="rotate(-0 22.599056 73.797908)">a</text>
   </g>
   <g id="text_14">
    <text style="font-size: 9.6px; font-family: 'Arial', 'Helvetica', 'DejaVu Sans', sans-serif; text-anchor: middle" x="109.560656" y="76.08" transform="rotate(-0 109.560656 76.08)">Short-run optimization</text>
   </g>
  </g>
  <g id="axes_2">
   <g id="patch_6">
    <path d="M 214.968656 185.04 
L 346.728656 185.04 
L 346.728656 82.08 
L 214.968656 82.08 
z
" style="fill: #ffffff"/>
   </g>
   <g id="matplotlib.axis_3">
    <g id="xtick_6">
     <g id="line2d_19">
      <g>
       <use xlink:href="#m4e1d97d5b6" x="218.697713" y="185.04" style="stroke: #000000; stroke-width: 0.8"/>
      </g>
     </g>
     <g id="text_15">
      <text style="font-size: 8px; font-family: 'Arial', 'Helvetica', 'DejaVu Sans', sans-serif; text-anchor: middle" x="218.697713" y="197.364219" transform="rotate(-0 218.697713 197.364219)">20</text>
     </g>
    </g>
    <g id="xtick_7">
     <g id="line2d_20">
      <g>
       <use xlink:href="#m4e1d97d5b6" x="249.773185" y="185.04" style="stroke: #000000; stroke-width: 0.8"/>
      </g>
     </g>
     <g id="text_16">
      <text style="font-size: 8px; font-family: 'Arial', 'Helvetica', 'DejaVu Sans', sans-serif; text-anchor: middle" x="249.773185" y="197.364219" transform="rotate(-0 249.773185 197.364219)">40</text>
     </g>
    </g>
    <g id="xtick_8">
     <g id="line2d_21">
      <g>
       <use xlink:href="#m4e1d97d5b6" x="280.848656" y="185.04" style="stroke: #000000; stroke-width: 0.8"/>
      </g>
     </g>
     <g id="text_17">
      <text style="font-size: 8px; font-family: 'Arial', 'Helvetica', 'DejaVu Sans', sans-serif; text-anchor: middle" x="280.848656" y="197.364219" transform="rotate(-0 280.848656 197.364219)">60</text>
     </g>
    </g>
    <g id="xtick_9">
     <g id="line2d_22">
      <g>
       <use xlink:href="#m4e1d97d5b6" x="311.924128" y="185.04" style="stroke: #000000; stroke-width: 0.8"/>
      </g>
     </g>
     <g id="text_18">
      <text style="font-size: 8px; font-family: 'Arial', 'Helvetica', 'DejaVu Sans', sans-serif; text-anchor: middle" x="311.924128" y="197.364219" transform="rotate(-0 311.924128 197.364219)">80</text>
     </g>
    </g>
    <g id="xtick_10">
     <g id="line2d_23">
      <g>
       <use xlink:href="#m4e1d97d5b6" x="342.9996" y="185.04" style="stroke: #000000; stroke-width: 0.8"/>
      </g>
     </g>
     <g id="text_19">
      <text style="font-size: 8px; font-family: 'Arial', 'Helvetica', 'DejaVu Sans', sans-serif; text-anchor: middle" x="342.9996" y="197.364219" transform="rotate(-0 342.9996 197.364219)">100</text>
     </g>
    </g>
    <g id="text_20">
     <text style="font-size: 8px; font-family: 'Arial', 'Helvetica', 'DejaVu Sans', sans-serif; text-anchor: middle" x="280.848656" y="208.872031" transform="rotate(-0 280.848656 208.872031)">Gradient step</text>
    </g>
   </g>
   <g id="matplotlib.axis_4">
    <g id="ytick_5">
     <g id="line2d_24">
      <path d="M 214.968656 173.337888 
L 346.728656 173.337888 
" clip-path="url(#p3539e719f8)" style="fill: none; stroke: #d8d8d8; stroke-opacity: 0.7; stroke-width: 0.6; stroke-linecap: square"/>
     </g>
     <g id="line2d_25">
      <g>
       <use xlink:href="#m9c58f08f66" x="214.968656" y="173.337888" style="stroke: #000000; stroke-width: 0.8"/>
      </g>
     </g>
     <g id="text_21">
      <text style="font-size: 8px; font-family: 'Arial', 'Helvetica', 'DejaVu Sans', sans-serif; text-anchor: end" x="208.468656" y="176.249997" transform="rotate(-0 208.468656 176.249997)">4</text>
     </g>
    </g>
    <g id="ytick_6">
     <g id="line2d_26">
      <path d="M 214.968656 155.519926 
L 346.728656 155.519926 
" clip-path="url(#p3539e719f8)" style="fill: none; stroke: #d8d8d8; stroke-opacity: 0.7; stroke-width: 0.6; stroke-linecap: square"/>
     </g>
     <g id="line2d_27">
      <g>
       <use xlink:href="#m9c58f08f66" x="214.968656" y="155.519926" style="stroke: #000000; stroke-width: 0.8"/>
      </g>
     </g>
     <g id="text_22">
      <text style="font-size: 8px; font-family: 'Arial', 'Helvetica', 'DejaVu Sans', sans-serif; text-anchor: end" x="208.468656" y="158.432035" transform="rotate(-0 208.468656 158.432035)">5</text>
     </g>
    </g>
    <g id="ytick_7">
     <g id="line2d_28">
      <path d="M 214.968656 137.701963 
L 346.728656 137.701963 
" clip-path="url(#p3539e719f8)" style="fill: none; stroke: #d8d8d8; stroke-opacity: 0.7; stroke-width: 0.6; stroke-linecap: square"/>
     </g>
     <g id="line2d_29">
      <g>
       <use xlink:href="#m9c58f08f66" x="214.968656" y="137.701963" style="stroke: #000000; stroke-width: 0.8"/>
      </g>
     </g>
     <g id="text_23">
      <text style="font-size: 8px; font-family: 'Arial', 'Helvetica', 'DejaVu Sans', sans-serif; text-anchor: end" x="208.468656" y="140.614073" transform="rotate(-0 208.468656 140.614073)">6</text>
     </g>
    </g>
    <g id="ytick_8">
     <g id="line2d_30">
      <path d="M 214.968656 119.884001 
L 346.728656 119.884001 
" clip-path="url(#p3539e719f8)" style="fill: none; stroke: #d8d8d8; stroke-opacity: 0.7; stroke-width: 0.6; stroke-linecap: square"/>
     </g>
     <g id="line2d_31">
      <g>
       <use xlink:href="#m9c58f08f66" x="214.968656" y="119.884001" style="stroke: #000000; stroke-width: 0.8"/>
      </g>
     </g>
     <g id="text_24">
      <text style="font-size: 8px; font-family: 'Arial', 'Helvetica', 'DejaVu Sans', sans-serif; text-anchor: end" x="208.468656" y="122.796111" transform="rotate(-0 208.468656 122.796111)">7</text>
     </g>
    </g>
    <g id="ytick_9">
     <g id="line2d_32">
      <path d="M 214.968656 102.066039 
L 346.728656 102.066039 
" clip-path="url(#p3539e719f8)" style="fill: none; stroke: #d8d8d8; stroke-opacity: 0.7; stroke-width: 0.6; stroke-linecap: square"/>
     </g>
     <g id="line2d_33">
      <g>
       <use xlink:href="#m9c58f08f66" x="214.968656" y="102.066039" style="stroke: #000000; stroke-width: 0.8"/>
      </g>
     </g>
     <g id="text_25">
      <text style="font-size: 8px; font-family: 'Arial', 'Helvetica', 'DejaVu Sans', sans-serif; text-anchor: end" x="208.468656" y="104.978149" transform="rotate(-0 208.468656 104.978149)">8</text>
     </g>
    </g>
    <g id="ytick_10">
     <g id="line2d_34">
      <path d="M 214.968656 84.248077 
L 346.728656 84.248077 
" clip-path="url(#p3539e719f8)" style="fill: none; stroke: #d8d8d8; stroke-opacity: 0.7; stroke-width: 0.6; stroke-linecap: square"/>
     </g>
     <g id="line2d_35">
      <g>
       <use xlink:href="#m9c58f08f66" x="214.968656" y="84.248077" style="stroke: #000000; stroke-width: 0.8"/>
      </g>
     </g>
     <g id="text_26">
      <text style="font-size: 8px; font-family: 'Arial', 'Helvetica', 'DejaVu Sans', sans-serif; text-anchor: end" x="208.468656" y="87.160187" transform="rotate(-0 208.468656 87.160187)">9</text>
     </g>
    </g>
    <g id="text_27">
     <text style="font-size: 8px; font-family: 'Arial', 'Helvetica', 'DejaVu Sans', sans-serif; text-anchor: middle" x="198.336156" y="133.56" transform="rotate(-90 198.336156 133.56)">Validation cross-entropy</text>
    </g>
   </g>
   <g id="line2d_36">
    <path d="M 218.697713 129.625954 
L 249.773185 156.503816 
L 280.848656 164.717237 
L 311.924128 167.969407 
L 342.9996 169.011277 
" clip-path="url(#p3539e719f8)" style="fill: none; stroke: #4477aa; stroke-width: 1.5; stroke-linecap: square"/>
    <defs>
     <path id="m4116c2fcb4" d="M -1.5 1.5 
L 1.5 1.5 
L 1.5 -1.5 
L -1.5 -1.5 
z
"/>
    </defs>
    <g clip-path="url(#p3539e719f8)">
     <use xlink:href="#m4116c2fcb4" x="218.697713" y="129.625954" style="fill: #4477aa"/>
     <use xlink:href="#m4116c2fcb4" x="249.773185" y="156.503816" style="fill: #4477aa"/>
     <use xlink:href="#m4116c2fcb4" x="280.848656" y="164.717237" style="fill: #4477aa"/>
     <use xlink:href="#m4116c2fcb4" x="311.924128" y="167.969407" style="fill: #4477aa"/>
     <use xlink:href="#m4116c2fcb4" x="342.9996" y="169.011277" style="fill: #4477aa"/>
    </g>
   </g>
   <g id="line2d_37">
    <path d="M 218.697713 157.837882 
L 249.773185 173.004478 
L 280.848656 176.933855 
L 311.924128 179.193957 
L 342.9996 179.379442 
" clip-path="url(#p3539e719f8)" style="fill: none; stroke: #66a61e; stroke-width: 1.5; stroke-linecap: square"/>
    <defs>
     <path id="ma569cc2b90" d="M -1.5 1.5 
L 1.5 1.5 
L 1.5 -1.5 
L -1.5 -1.5 
z
"/>
    </defs>
    <g clip-path="url(#p3539e719f8)">
     <use xlink:href="#ma569cc2b90" x="218.697713" y="157.837882" style="fill: #66a61e"/>
     <use xlink:href="#ma569cc2b90" x="249.773185" y="173.004478" style="fill: #66a61e"/>
     <use xlink:href="#ma569cc2b90" x="280.848656" y="176.933855" style="fill: #66a61e"/>
     <use xlink:href="#ma569cc2b90" x="311.924128" y="179.193957" style="fill: #66a61e"/>
     <use xlink:href="#ma569cc2b90" x="342.9996" y="179.379442" style="fill: #66a61e"/>
    </g>
   </g>
   <g id="line2d_38">
    <path d="M 218.697713 160.150725 
L 249.773185 172.24488 
L 280.848656 176.927209 
L 311.924128 179.995605 
L 342.9996 180.36 
" clip-path="url(#p3539e719f8)" style="fill: none; stroke: #228833; stroke-width: 1.5; stroke-linecap: square"/>
    <defs>
     <path id="mb769a7092b" d="M -1.5 1.5 
L 1.5 1.5 
L 1.5 -1.5 
L -1.5 -1.5 
z
"/>
    </defs>
    <g clip-path="url(#p3539e719f8)">
     <use xlink:href="#mb769a7092b" x="218.697713" y="160.150725" style="fill: #228833"/>
     <use xlink:href="#mb769a7092b" x="249.773185" y="172.24488" style="fill: #228833"/>
     <use xlink:href="#mb769a7092b" x="280.848656" y="176.927209" style="fill: #228833"/>
     <use xlink:href="#mb769a7092b" x="311.924128" y="179.995605" style="fill: #228833"/>
     <use xlink:href="#mb769a7092b" x="342.9996" y="180.36" style="fill: #228833"/>
    </g>
   </g>
   <g id="line2d_39">
    <path d="M 218.697713 146.372023 
L 249.773185 159.804094 
L 280.848656 166.748253 
L 311.924128 170.015479 
L 342.9996 170.479067 
" clip-path="url(#p3539e719f8)" style="fill: none; stroke: #ee7733; stroke-width: 1.5; stroke-linecap: square"/>
    <defs>
     <path id="m0e44ea926c" d="M -1.5 1.5 
L 1.5 1.5 
L 1.5 -1.5 
L -1.5 -1.5 
z
"/>
    </defs>
    <g clip-path="url(#p3539e719f8)">
     <use xlink:href="#m0e44ea926c" x="218.697713" y="146.372023" style="fill: #ee7733"/>
     <use xlink:href="#m0e44ea926c" x="249.773185" y="159.804094" style="fill: #ee7733"/>
     <use xlink:href="#m0e44ea926c" x="280.848656" y="166.748253" style="fill: #ee7733"/>
     <use xlink:href="#m0e44ea926c" x="311.924128" y="170.015479" style="fill: #ee7733"/>
     <use xlink:href="#m0e44ea926c" x="342.9996" y="170.479067" style="fill: #ee7733"/>
    </g>
   </g>
   <g id="line2d_40">
    <path d="M 218.697713 86.76 
L 249.773185 144.338121 
L 280.848656 151.790466 
L 311.924128 155.222027 
L 342.9996 156.012396 
" clip-path="url(#p3539e719f8)" style="fill: none; stroke: #aa3377; stroke-width: 1.5; stroke-linecap: square"/>
    <defs>
     <path id="mf9a67d9f57" d="M -1.5 1.5 
L 1.5 1.5 
L 1.5 -1.5 
L -1.5 -1.5 
z
"/>
    </defs>
    <g clip-path="url(#p3539e719f8)">
     <use xlink:href="#mf9a67d9f57" x="218.697713" y="86.76" style="fill: #aa3377"/>
     <use xlink:href="#mf9a67d9f57" x="249.773185" y="144.338121" style="fill: #aa3377"/>
     <use xlink:href="#mf9a67d9f57" x="280.848656" y="151.790466" style="fill: #aa3377"/>
     <use xlink:href="#mf9a67d9f57" x="311.924128" y="155.222027" style="fill: #aa3377"/>
     <use xlink:href="#mf9a67d9f57" x="342.9996" y="156.012396" style="fill: #aa3377"/>
    </g>
   </g>
   <g id="patch_7">
    <path d="M 214.968656 185.04 
L 214.968656 82.08 
" style="fill: none; stroke: #000000; stroke-width: 0.8; stroke-linejoin: miter; stroke-linecap: square"/>
   </g>
   <g id="patch_8">
    <path d="M 214.968656 185.04 
L 346.728656 185.04 
" style="fill: none; stroke: #000000; stroke-width: 0.8; stroke-linejoin: miter; stroke-linecap: square"/>
   </g>
   <g id="text_28">
    <text style="font-weight: 700; font-size: 10px; font-family: 'Arial', 'Helvetica', 'DejaVu Sans', sans-serif; text-anchor: start" x="193.887056" y="73.797908" transform="rotate(-0 193.887056 73.797908)">b</text>
   </g>
   <g id="text_29">
    <text style="font-size: 9.6px; font-family: 'Arial', 'Helvetica', 'DejaVu Sans', sans-serif; text-anchor: middle" x="280.848656" y="76.08" transform="rotate(-0 280.848656 76.08)">Held-out comparison</text>
   </g>
  </g>
  <g id="axes_3">
   <g id="patch_9">
    <path d="M 386.256656 185.04 
L 518.016656 185.04 
L 518.016656 82.08 
L 386.256656 82.08 
z
" style="fill: #ffffff"/>
   </g>
   <g id="matplotlib.axis_5">
    <g id="xtick_11">
     <g id="line2d_41">
      <g>
       <use xlink:href="#m4e1d97d5b6" x="388.730138" y="185.04" style="stroke: #000000; stroke-width: 0.8"/>
      </g>
     </g>
     <g id="text_30">
      <text style="font-size: 8px; font-family: 'Arial', 'Helvetica', 'DejaVu Sans', sans-serif; text-anchor: middle" x="388.730138" y="197.364219" transform="rotate(-0 388.730138 197.364219)">0</text>
     </g>
    </g>
    <g id="xtick_12">
     <g id="line2d_42">
      <g>
       <use xlink:href="#m4e1d97d5b6" x="438.953123" y="185.04" style="stroke: #000000; stroke-width: 0.8"/>
      </g>
     </g>
     <g id="text_31">
      <text style="font-size: 8px; font-family: 'Arial', 'Helvetica', 'DejaVu Sans', sans-serif; text-anchor: middle" x="438.953123" y="197.364219" transform="rotate(-0 438.953123 197.364219)">2000</text>
     </g>
    </g>
    <g id="xtick_13">
     <g id="line2d_43">
      <g>
       <use xlink:href="#m4e1d97d5b6" x="489.176107" y="185.04" style="stroke: #000000; stroke-width: 0.8"/>
      </g>
     </g>
     <g id="text_32">
      <text style="font-size: 8px; font-family: 'Arial', 'Helvetica', 'DejaVu Sans', sans-serif; text-anchor: middle" x="489.176107" y="197.364219" transform="rotate(-0 489.176107 197.364219)">4000</text>
     </g>
    </g>
    <g id="text_33">
     <text style="font-size: 8px; font-family: 'Arial', 'Helvetica', 'DejaVu Sans', sans-serif; text-anchor: middle" x="452.136656" y="208.872031" transform="rotate(-0 452.136656 208.872031)">Gradient step</text>
    </g>
   </g>
   <g id="matplotlib.axis_6">
    <g id="ytick_11">
     <g id="line2d_44">
      <path d="M 386.256656 174.199149 
L 518.016656 174.199149 
" clip-path="url(#p53de0a999b)" style="fill: none; stroke: #d8d8d8; stroke-opacity: 0.7; stroke-width: 0.6; stroke-linecap: square"/>
     </g>
     <g id="line2d_45">
      <g>
       <use xlink:href="#m9c58f08f66" x="386.256656" y="174.199149" style="stroke: #000000; stroke-width: 0.8"/>
      </g>
     </g>
     <g id="text_34">
      <text style="font-size: 8px; font-family: 'Arial', 'Helvetica', 'DejaVu Sans', sans-serif; text-anchor: end" x="379.756656" y="177.111258" transform="rotate(-0 379.756656 177.111258)">2</text>
     </g>
    </g>
    <g id="ytick_12">
     <g id="line2d_46">
      <path d="M 386.256656 142.845579 
L 518.016656 142.845579 
" clip-path="url(#p53de0a999b)" style="fill: none; stroke: #d8d8d8; stroke-opacity: 0.7; stroke-width: 0.6; stroke-linecap: square"/>
     </g>
     <g id="line2d_47">
      <g>
       <use xlink:href="#m9c58f08f66" x="386.256656" y="142.845579" style="stroke: #000000; stroke-width: 0.8"/>
      </g>
     </g>
     <g id="text_35">
      <text style="font-size: 8px; font-family: 'Arial', 'Helvetica', 'DejaVu Sans', sans-serif; text-anchor: end" x="379.756656" y="145.757689" transform="rotate(-0 379.756656 145.757689)">4</text>
     </g>
    </g>
    <g id="ytick_13">
     <g id="line2d_48">
      <path d="M 386.256656 111.492009 
L 518.016656 111.492009 
" clip-path="url(#p53de0a999b)" style="fill: none; stroke: #d8d8d8; stroke-opacity: 0.7; stroke-width: 0.6; stroke-linecap: square"/>
     </g>
     <g id="line2d_49">
      <g>
       <use xlink:href="#m9c58f08f66" x="386.256656" y="111.492009" style="stroke: #000000; stroke-width: 0.8"/>
      </g>
     </g>
     <g id="text_36">
      <text style="font-size: 8px; font-family: 'Arial', 'Helvetica', 'DejaVu Sans', sans-serif; text-anchor: end" x="379.756656" y="114.404119" transform="rotate(-0 379.756656 114.404119)">6</text>
     </g>
    </g>
    <g id="text_37">
     <text style="font-size: 8px; font-family: 'Arial', 'Helvetica', 'DejaVu Sans', sans-serif; text-anchor: middle" x="369.624156" y="133.56" transform="rotate(-90 369.624156 133.56)">Cross-entropy loss</text>
    </g>
   </g>
   <g id="line2d_50">
    <path d="M 389.985713 86.76 
L 391.241287 137.114335 
L 392.496862 150.095888 
L 393.752437 155.981612 
L 395.008011 159.09604 
L 396.263586 161.380508 
L 397.519161 162.547049 
L 398.774735 163.53812 
L 400.03031 163.90734 
L 401.285884 164.634805 
L 402.541459 164.985824 
L 403.797034 165.823968 
L 405.052608 166.525661 
L 406.308183 167.076841 
L 407.563757 167.750503 
L 408.819332 168.361914 
L 410.074907 168.719172 
L 411.330481 169.110323 
L 412.586056 169.363551 
L 413.841631 169.796606 
L 415.097205 170.260451 
L 416.35278 170.519337 
L 417.608354 171.064764 
L 418.863929 171.376324 
L 420.119504 171.772931 
L 421.375078 171.537403 
L 422.630653 172.201785 
L 423.886227 172.831099 
L 425.141802 172.466958 
L 426.397377 172.902836 
L 427.652951 173.031573 
L 428.908526 173.618669 
L 430.164101 173.60097 
L 431.419675 173.685687 
L 432.67525 173.914145 
L 433.930824 174.000587 
L 435.186399 174.253469 
L 436.441974 174.131551 
L 437.697548 174.701872 
L 438.953123 174.924404 
L 440.208697 175.143863 
L 441.464272 175.043469 
L 442.719847 175.428664 
L 443.975421 175.463827 
L 445.230996 175.632085 
L 446.48657 175.873869 
L 447.742145 175.641868 
L 448.99772 175.617083 
L 450.253294 175.889436 
L 451.508869 175.981427 
L 452.764444 176.186934 
L 454.020018 176.401863 
L 455.275593 176.772995 
L 456.531167 176.527496 
L 457.786742 176.821703 
L 459.042317 177.374403 
L 460.297891 177.134799 
L 461.553466 177.225584 
L 462.80904 177.241339 
L 464.064615 177.393466 
L 465.32019 177.633854 
L 466.575764 177.632835 
L 467.831339 177.849285 
L 469.086914 177.73185 
L 470.342488 177.93488 
L 471.598063 178.042532 
L 472.853637 177.944443 
L 474.109212 178.204223 
L 475.364787 178.356052 
L 476.620361 178.379583 
L 477.875936 178.462247 
L 479.13151 178.627747 
L 480.387085 178.674887 
L 481.64266 178.858007 
L 482.898234 178.894534 
L 484.153809 179.114997 
L 485.409384 178.939589 
L 486.664958 179.199981 
L 487.920533 179.204354 
L 489.176107 179.385594 
L 490.431682 179.269037 
L 491.687257 179.252639 
L 492.942831 179.254348 
L 494.198406 179.355306 
L 495.45398 179.622486 
L 496.709555 179.73249 
L 497.96513 179.638429 
L 499.220704 179.781762 
L 500.476279 179.551705 
L 501.731854 179.63603 
L 502.987428 179.907725 
L 504.243003 179.75555 
L 505.498577 179.741065 
L 506.754152 179.735343 
L 508.009727 179.961292 
L 509.265301 179.67574 
L 510.520876 179.697436 
L 511.77645 180.021867 
L 513.032025 179.860663 
L 514.2876 179.93171 
" clip-path="url(#p53de0a999b)" style="fill: none; stroke: #0f4d92; stroke-width: 1.5; stroke-linecap: square"/>
   </g>
   <g id="line2d_51">
    <path d="M 395.008011 160.636629 
L 401.285884 164.647456 
L 407.563757 167.682215 
L 413.841631 169.686414 
L 420.119504 171.926674 
L 426.397377 172.865619 
L 432.67525 174.36827 
L 438.953123 174.335803 
L 445.230996 175.330652 
L 451.508869 175.908734 
L 457.786742 177.426043 
L 464.064615 177.547851 
L 470.342488 178.423588 
L 476.620361 178.114896 
L 482.898234 178.98941 
L 489.176107 179.452847 
L 495.45398 179.653996 
L 501.731854 179.90136 
L 508.009727 179.813852 
L 514.2876 180.36 
" clip-path="url(#p53de0a999b)" style="fill: none; stroke: #b64342; stroke-width: 1.6; stroke-linecap: square"/>
    <defs>
     <path id="m5ddbf03309" d="M -1.6 1.6 
L 1.6 1.6 
L 1.6 -1.6 
L -1.6 -1.6 
z
"/>
    </defs>
    <g clip-path="url(#p53de0a999b)">
     <use xlink:href="#m5ddbf03309" x="395.008011" y="160.636629" style="fill: #b64342"/>
     <use xlink:href="#m5ddbf03309" x="401.285884" y="164.647456" style="fill: #b64342"/>
     <use xlink:href="#m5ddbf03309" x="407.563757" y="167.682215" style="fill: #b64342"/>
     <use xlink:href="#m5ddbf03309" x="413.841631" y="169.686414" style="fill: #b64342"/>
     <use xlink:href="#m5ddbf03309" x="420.119504" y="171.926674" style="fill: #b64342"/>
     <use xlink:href="#m5ddbf03309" x="426.397377" y="172.865619" style="fill: #b64342"/>
     <use xlink:href="#m5ddbf03309" x="432.67525" y="174.36827" style="fill: #b64342"/>
     <use xlink:href="#m5ddbf03309" x="438.953123" y="174.335803" style="fill: #b64342"/>
     <use xlink:href="#m5ddbf03309" x="445.230996" y="175.330652" style="fill: #b64342"/>
     <use xlink:href="#m5ddbf03309" x="451.508869" y="175.908734" style="fill: #b64342"/>
     <use xlink:href="#m5ddbf03309" x="457.786742" y="177.426043" style="fill: #b64342"/>
     <use xlink:href="#m5ddbf03309" x="464.064615" y="177.547851" style="fill: #b64342"/>
     <use xlink:href="#m5ddbf03309" x="470.342488" y="178.423588" style="fill: #b64342"/>
     <use xlink:href="#m5ddbf03309" x="476.620361" y="178.114896" style="fill: #b64342"/>
     <use xlink:href="#m5ddbf03309" x="482.898234" y="178.98941" style="fill: #b64342"/>
     <use xlink:href="#m5ddbf03309" x="489.176107" y="179.452847" style="fill: #b64342"/>
     <use xlink:href="#m5ddbf03309" x="495.45398" y="179.653996" style="fill: #b64342"/>
     <use xlink:href="#m5ddbf03309" x="501.731854" y="179.90136" style="fill: #b64342"/>
     <use xlink:href="#m5ddbf03309" x="508.009727" y="179.813852" style="fill: #b64342"/>
     <use xlink:href="#m5ddbf03309" x="514.2876" y="180.36" style="fill: #b64342"/>
    </g>
   </g>
   <g id="line2d_52">
    <path d="M 386.256656 174.199149 
L 518.016656 174.199149 
" clip-path="url(#p53de0a999b)" style="fill: none; stroke-dasharray: 3.7,1.6; stroke-dashoffset: 0; stroke: #666666"/>
   </g>
   <g id="patch_10">
    <path d="M 386.256656 185.04 
L 386.256656 82.08 
" style="fill: none; stroke: #000000; stroke-width: 0.8; stroke-linejoin: miter; stroke-linecap: square"/>
   </g>
   <g id="patch_11">
    <path d="M 386.256656 185.04 
L 518.016656 185.04 
" style="fill: none; stroke: #000000; stroke-width: 0.8; stroke-linejoin: miter; stroke-linecap: square"/>
   </g>
   <g id="text_38">
    <text style="font-weight: 700; font-size: 7px; font-family: 'Arial', 'Helvetica', 'DejaVu Sans', sans-serif; text-anchor: end; fill: #b64342" x="507.2876" y="171.36" transform="rotate(-0 507.2876 171.36)">1.607</text>
   </g>
   <g id="text_39">
    <text style="font-weight: 700; font-size: 10px; font-family: 'Arial', 'Helvetica', 'DejaVu Sans', sans-serif; text-anchor: start" x="365.175056" y="73.797908" transform="rotate(-0 365.175056 73.797908)">c</text>
   </g>
   <g id="text_40">
    <text style="font-size: 9.6px; font-family: 'Arial', 'Helvetica', 'DejaVu Sans', sans-serif; text-anchor: middle" x="452.136656" y="76.08" transform="rotate(-0 452.136656 76.08)">Selected LR 3e-3</text>
   </g>
   <g id="legend_1">
    <g id="line2d_53">
     <path d="M 442.6715 90.387178 
L 449.1715 90.387178 
L 455.6715 90.387178 
" style="fill: none; stroke: #0f4d92; stroke-width: 1.5; stroke-linecap: square"/>
    </g>
    <g id="text_41">
     <text style="font-size: 6.5px; font-family: 'Arial', 'Helvetica', 'DejaVu Sans', sans-serif; text-anchor: start" x="460.8715" y="92.662178" transform="rotate(-0 460.8715 92.662178)">Train</text>
    </g>
    <g id="line2d_54">
     <path d="M 442.6715 99.737275 
L 449.1715 99.737275 
L 455.6715 99.737275 
" style="fill: none; stroke: #b64342; stroke-width: 1.6; stroke-linecap: square"/>
     <g>
      <use xlink:href="#m5ddbf03309" x="449.1715" y="99.737275" style="fill: #b64342"/>
     </g>
    </g>
    <g id="text_42">
     <text style="font-size: 6.5px; font-family: 'Arial', 'Helvetica', 'DejaVu Sans', sans-serif; text-anchor: start" x="460.8715" y="102.012275" transform="rotate(-0 460.8715 102.012275)">Validation</text>
    </g>
    <g id="line2d_55">
     <path d="M 442.6715 109.087373 
L 449.1715 109.087373 
L 455.6715 109.087373 
" style="fill: none; stroke-dasharray: 3.7,1.6; stroke-dashoffset: 0; stroke: #666666"/>
    </g>
    <g id="text_43">
     <text style="font-size: 6.5px; font-family: 'Arial', 'Helvetica', 'DejaVu Sans', sans-serif; text-anchor: start" x="460.8715" y="111.362373" transform="rotate(-0 460.8715 111.362373)">MPS target (2.00)</text>
    </g>
   </g>
  </g>
  <g id="text_44">
   <text style="font-weight: 700; font-size: 11px; font-family: 'Arial', 'Helvetica', 'DejaVu Sans', sans-serif; text-anchor: middle" x="266.592656" y="15.208301" transform="rotate(-0 266.592656 15.208301)">Short-run screening favors a peak learning rate of 3e-3 for TinyStories</text>
  </g>
  <g id="text_45">
   <text style="font-size: 6.3px; font-family: 'Arial', 'Helvetica', 'DejaVu Sans', sans-serif; text-anchor: middle; fill: #4d4d4d" x="266.592656" y="229.344047" transform="rotate(-0 266.592656 229.344047)">Short runs: 100 steps per learning rate; full run: 40.96M tokens. Train curves are logging-interval means; validation uses 10 sampled batches; seed=42; one run per setting; no smoothing.</text>
  </g>
  <g id="legend_2">
   <g id="text_46">
    <text style="font-size: 6.5px; font-family: 'Arial', 'Helvetica', 'DejaVu Sans', sans-serif; text-anchor: start" x="167.640875" y="50.542178" transform="rotate(-0 167.640875 50.542178)">Peak learning rate</text>
   </g>
   <g id="line2d_56">
    <path d="M 101.696344 57.617402 
L 108.196344 57.617402 
L 114.696344 57.617402 
" style="fill: none; stroke: #4477aa; stroke-width: 1.5; stroke-linecap: square"/>
    <g>
     <use xlink:href="#mfb4266aaec" x="108.196344" y="57.617402" style="fill: #4477aa"/>
    </g>
   </g>
   <g id="text_47">
    <text style="font-size: 6.5px; font-family: 'Arial', 'Helvetica', 'DejaVu Sans', sans-serif; text-anchor: start" x="119.896344" y="59.892402" transform="rotate(-0 119.896344 59.892402)">3e-4</text>
   </g>
   <g id="line2d_57">
    <path d="M 140.054469 57.617402 
L 146.554469 57.617402 
L 153.054469 57.617402 
" style="fill: none; stroke: #66a61e; stroke-width: 1.5; stroke-linecap: square"/>
    <g>
     <use xlink:href="#m924becaf7d" x="146.554469" y="57.617402" style="fill: #66a61e"/>
    </g>
   </g>
   <g id="text_48">
    <text style="font-size: 6.5px; font-family: 'Arial', 'Helvetica', 'DejaVu Sans', sans-serif; text-anchor: start" x="158.254469" y="59.892402" transform="rotate(-0 158.254469 59.892402)">1e-3</text>
   </g>
   <g id="line2d_58">
    <path d="M 178.412594 57.617402 
L 184.912594 57.617402 
L 191.412594 57.617402 
" style="fill: none; stroke: #228833; stroke-width: 1.5; stroke-linecap: square"/>
    <g>
     <use xlink:href="#m617e54e794" x="184.912594" y="57.617402" style="fill: #228833"/>
    </g>
   </g>
   <g id="text_49">
    <text style="font-size: 6.5px; font-family: 'Arial', 'Helvetica', 'DejaVu Sans', sans-serif; text-anchor: start" x="196.612594" y="59.892402" transform="rotate(-0 196.612594 59.892402)">3e-3</text>
   </g>
   <g id="line2d_59">
    <path d="M 216.770719 57.617402 
L 223.270719 57.617402 
L 229.770719 57.617402 
" style="fill: none; stroke: #ee7733; stroke-width: 1.5; stroke-linecap: square"/>
    <g>
     <use xlink:href="#md6e0c4faf1" x="223.270719" y="57.617402" style="fill: #ee7733"/>
    </g>
   </g>
   <g id="text_50">
    <text style="font-size: 6.5px; font-family: 'Arial', 'Helvetica', 'DejaVu Sans', sans-serif; text-anchor: start" x="234.970719" y="59.892402" transform="rotate(-0 234.970719 59.892402)">1e-2</text>
   </g>
   <g id="line2d_60">
    <path d="M 255.128844 57.617402 
L 261.628844 57.617402 
L 268.128844 57.617402 
" style="fill: none; stroke: #aa3377; stroke-width: 1.5; stroke-linecap: square"/>
    <g>
     <use xlink:href="#m4a2f1e5bcc" x="261.628844" y="57.617402" style="fill: #aa3377"/>
    </g>
   </g>
   <g id="text_51">
    <text style="font-size: 6.5px; font-family: 'Arial', 'Helvetica', 'DejaVu Sans', sans-serif; text-anchor: start" x="273.328844" y="59.892402" transform="rotate(-0 273.328844 59.892402)">3e-2</text>
   </g>
  </g>
 </g>
 <defs>
  <clipPath id="p5f56c4a841">
   <rect x="43.680656" y="82.08" width="131.76" height="102.96"/>
  </clipPath>
  <clipPath id="p3539e719f8">
   <rect x="214.968656" y="82.08" width="131.76" height="102.96"/>
  </clipPath>
  <clipPath id="p53de0a999b">
   <rect x="386.256656" y="82.08" width="131.76" height="102.96"/>
  </clipPath>
 </defs>
</svg>
